M48
; DRILL file {KiCad 5.1.12-84ad8e8a86~92~ubuntu20.04.1} date Sun 18 Sep 2022 07:07:58 PM
; FORMAT={-:-/ absolute / metric / decimal}
; #@! TF.CreationDate,2022-09-18T19:07:58-04:00
; #@! TF.GenerationSoftware,Kicad,Pcbnew,5.1.12-84ad8e8a86~92~ubuntu20.04.1
; #@! TF.FileFunction,Plated,1,2,PTH
FMAT,2
METRIC
T1C0.400
T2C0.800
%
G90
G05
T1
X120.396Y-103.378
X120.65Y-76.962
X120.904Y-110.998
X121.666Y-79.502
X121.666Y-100.838
X122.936Y-87.413
X122.936Y-98.298
X123.952Y-89.408
X123.952Y-95.758
X125.222Y-90.678
X125.222Y-94.234
X126.492Y-88.646
X126.492Y-97.282
X127.762Y-86.36
X127.762Y-102.108
X129.032Y-85.344
X129.032Y-99.568
X129.794Y-104.394
X133.35Y-93.218
X138.176Y-102.87
X139.192Y-104.902
X139.192Y-106.68
X143.256Y-109.982
X143.256Y-112.268
X150.368Y-95.758
X151.892Y-98.044
T2
X116.332Y-75.438
X116.332Y-77.978
X116.332Y-80.518
X116.332Y-83.058
X116.332Y-85.598
X116.332Y-88.138
X116.332Y-90.678
X116.332Y-93.218
X116.332Y-95.758
X116.332Y-98.298
X116.332Y-100.838
X116.332Y-103.378
X116.332Y-105.918
X116.332Y-108.458
X116.332Y-110.998
X116.332Y-113.538
X131.572Y-75.438
X131.572Y-77.978
X131.572Y-80.518
X131.572Y-83.058
X131.572Y-85.598
X131.572Y-88.138
X131.572Y-90.678
X131.572Y-93.218
X131.572Y-95.758
X131.572Y-98.298
X131.572Y-100.838
X131.572Y-103.378
X131.572Y-105.918
X131.572Y-108.458
X131.572Y-110.998
X131.572Y-113.538
X136.144Y-81.28
X136.144Y-85.09
X136.144Y-88.9
X136.144Y-92.71
X136.144Y-96.52
X136.144Y-100.33
X136.144Y-104.14
X136.144Y-107.95
X143.764Y-81.28
X143.764Y-85.09
X143.764Y-88.9
X143.764Y-92.71
X143.764Y-96.52
X143.764Y-100.33
X143.764Y-104.14
X143.764Y-107.95
X148.59Y-83.058
X148.59Y-85.598
X148.59Y-88.138
X148.59Y-90.678
X148.59Y-93.218
X148.59Y-95.758
X148.59Y-98.298
X148.59Y-100.838
X148.59Y-103.378
X148.59Y-105.918
X156.21Y-83.058
X156.21Y-85.598
X156.21Y-88.138
X156.21Y-90.678
X156.21Y-93.218
X156.21Y-95.758
X156.21Y-98.298
X156.21Y-100.838
X156.21Y-103.378
X156.21Y-105.918
T0
M30
