G04 #@! TF.GenerationSoftware,KiCad,Pcbnew,5.1.12-84ad8e8a86~92~ubuntu20.04.1*
G04 #@! TF.CreationDate,2022-09-18T19:07:34-04:00*
G04 #@! TF.ProjectId,pal-dumper,70616c2d-6475-46d7-9065-722e6b696361,v1.0*
G04 #@! TF.SameCoordinates,Original*
G04 #@! TF.FileFunction,Copper,L1,Top*
G04 #@! TF.FilePolarity,Positive*
%FSLAX46Y46*%
G04 Gerber Fmt 4.6, Leading zero omitted, Abs format (unit mm)*
G04 Created by KiCad (PCBNEW 5.1.12-84ad8e8a86~92~ubuntu20.04.1) date 2022-09-18 19:07:34*
%MOMM*%
%LPD*%
G01*
G04 APERTURE LIST*
G04 #@! TA.AperFunction,ComponentPad*
%ADD10O,1.600000X1.600000*%
G04 #@! TD*
G04 #@! TA.AperFunction,ComponentPad*
%ADD11C,1.600000*%
G04 #@! TD*
G04 #@! TA.AperFunction,ComponentPad*
%ADD12R,1.600000X1.600000*%
G04 #@! TD*
G04 #@! TA.AperFunction,ViaPad*
%ADD13C,0.800000*%
G04 #@! TD*
G04 #@! TA.AperFunction,Conductor*
%ADD14C,0.250000*%
G04 #@! TD*
G04 APERTURE END LIST*
D10*
X136144000Y-92710000D03*
D11*
X143764000Y-92710000D03*
D10*
X156210000Y-83058000D03*
X148590000Y-105918000D03*
X156210000Y-85598000D03*
X148590000Y-103378000D03*
X156210000Y-88138000D03*
X148590000Y-100838000D03*
X156210000Y-90678000D03*
X148590000Y-98298000D03*
X156210000Y-93218000D03*
X148590000Y-95758000D03*
X156210000Y-95758000D03*
X148590000Y-93218000D03*
X156210000Y-98298000D03*
X148590000Y-90678000D03*
X156210000Y-100838000D03*
X148590000Y-88138000D03*
X156210000Y-103378000D03*
X148590000Y-85598000D03*
X156210000Y-105918000D03*
D12*
X148590000Y-83058000D03*
D10*
X131572000Y-75438000D03*
X116332000Y-113538000D03*
X131572000Y-77978000D03*
X116332000Y-110998000D03*
X131572000Y-80518000D03*
X116332000Y-108458000D03*
X131572000Y-83058000D03*
X116332000Y-105918000D03*
X131572000Y-85598000D03*
X116332000Y-103378000D03*
X131572000Y-88138000D03*
X116332000Y-100838000D03*
X131572000Y-90678000D03*
X116332000Y-98298000D03*
X131572000Y-93218000D03*
X116332000Y-95758000D03*
X131572000Y-95758000D03*
X116332000Y-93218000D03*
X131572000Y-98298000D03*
X116332000Y-90678000D03*
X131572000Y-100838000D03*
X116332000Y-88138000D03*
X131572000Y-103378000D03*
X116332000Y-85598000D03*
X131572000Y-105918000D03*
X116332000Y-83058000D03*
X131572000Y-108458000D03*
X116332000Y-80518000D03*
X131572000Y-110998000D03*
X116332000Y-77978000D03*
X131572000Y-113538000D03*
D12*
X116332000Y-75438000D03*
D10*
X136144000Y-81280000D03*
D11*
X143764000Y-81280000D03*
D10*
X136144000Y-85090000D03*
D11*
X143764000Y-85090000D03*
D10*
X136144000Y-88900000D03*
D11*
X143764000Y-88900000D03*
D10*
X136144000Y-96520000D03*
D11*
X143764000Y-96520000D03*
D10*
X136144000Y-100330000D03*
D11*
X143764000Y-100330000D03*
D10*
X136144000Y-104140000D03*
D11*
X143764000Y-104140000D03*
D10*
X136144000Y-107950000D03*
D11*
X143764000Y-107950000D03*
D13*
X120904000Y-110998000D03*
X129032000Y-85344000D03*
X129032000Y-99568000D03*
X151892000Y-98044000D03*
X150368000Y-95758000D03*
X139192000Y-106680000D03*
X139192000Y-104902000D03*
X138176000Y-102870000D03*
X143256000Y-109982000D03*
X143256000Y-112268000D03*
X120650000Y-76962000D03*
X120396000Y-103378000D03*
X129794000Y-104394000D03*
X121666000Y-79502000D03*
X121666000Y-100838000D03*
X133350000Y-93218000D03*
X122936000Y-87413000D03*
X122936000Y-98298000D03*
X123952000Y-89408000D03*
X123952000Y-95758000D03*
X125222000Y-90678000D03*
X125222000Y-94234000D03*
X126492000Y-97282000D03*
X126492000Y-88646000D03*
X127762000Y-102108000D03*
X127762000Y-86360004D03*
D14*
X131572000Y-98298000D02*
X133858000Y-100584000D01*
X133858000Y-105664000D02*
X136144000Y-107950000D01*
X133858000Y-100584000D02*
X133858000Y-105664000D01*
X151638000Y-107950000D02*
X156210000Y-103378000D01*
X143764000Y-107950000D02*
X151638000Y-107950000D01*
X131572000Y-93218000D02*
X134366000Y-96012000D01*
X134366000Y-102362000D02*
X136144000Y-104140000D01*
X134366000Y-96012000D02*
X134366000Y-102362000D01*
X152544999Y-104503001D02*
X156210000Y-100838000D01*
X144127001Y-104503001D02*
X152544999Y-104503001D01*
X143764000Y-104140000D02*
X144127001Y-104503001D01*
X143764000Y-105156000D02*
X143764000Y-104140000D01*
X136652000Y-112268000D02*
X143764000Y-105156000D01*
X122174000Y-112268000D02*
X136652000Y-112268000D01*
X120904000Y-110998000D02*
X122174000Y-112268000D01*
X129032000Y-85344000D02*
X129032000Y-99568000D01*
X154977999Y-99530001D02*
X156210000Y-98298000D01*
X144563999Y-99530001D02*
X154977999Y-99530001D01*
X143764000Y-100330000D02*
X144563999Y-99530001D01*
X137668000Y-109728000D02*
X117602000Y-109728000D01*
X117602000Y-109728000D02*
X116332000Y-110998000D01*
X140970000Y-106426000D02*
X137668000Y-109728000D01*
X140970000Y-103124000D02*
X140970000Y-106426000D01*
X143764000Y-100330000D02*
X140970000Y-103124000D01*
X131572000Y-85598000D02*
X134112000Y-88138000D01*
X134112000Y-94488000D02*
X136144000Y-96520000D01*
X134112000Y-88138000D02*
X134112000Y-94488000D01*
X156210000Y-95758000D02*
X153924000Y-98044000D01*
X153924000Y-98044000D02*
X151892000Y-98044000D01*
X150876000Y-97028000D02*
X151892000Y-98044000D01*
X147066000Y-97028000D02*
X150876000Y-97028000D01*
X146558000Y-96520000D02*
X147066000Y-97028000D01*
X143764000Y-96520000D02*
X146558000Y-96520000D01*
X131572000Y-83058000D02*
X134620000Y-86106000D01*
X134620000Y-91186000D02*
X136144000Y-92710000D01*
X134620000Y-86106000D02*
X134620000Y-91186000D01*
X154902001Y-91910001D02*
X156210000Y-93218000D01*
X144563999Y-91910001D02*
X154902001Y-91910001D01*
X143764000Y-92710000D02*
X144563999Y-91910001D01*
X156210000Y-93218000D02*
X152908000Y-93218000D01*
X152908000Y-93218000D02*
X150368000Y-95758000D01*
X139192000Y-106680000D02*
X140208000Y-105664000D01*
X140208000Y-92456000D02*
X143764000Y-88900000D01*
X140208000Y-105664000D02*
X140208000Y-92456000D01*
X154940000Y-89408000D02*
X156210000Y-90678000D01*
X144272000Y-89408000D02*
X154940000Y-89408000D01*
X143764000Y-88900000D02*
X144272000Y-89408000D01*
X143764000Y-85090000D02*
X139192000Y-89662000D01*
X139192000Y-89662000D02*
X139192000Y-104902000D01*
X154940000Y-86868000D02*
X156210000Y-88138000D01*
X145542000Y-86868000D02*
X154940000Y-86868000D01*
X143764000Y-85090000D02*
X145542000Y-86868000D01*
X135382000Y-80518000D02*
X136144000Y-81280000D01*
X131572000Y-80518000D02*
X135382000Y-80518000D01*
X151892000Y-81280000D02*
X156210000Y-85598000D01*
X143764000Y-81280000D02*
X151892000Y-81280000D01*
X138176000Y-86868000D02*
X143764000Y-81280000D01*
X138176000Y-102870000D02*
X138176000Y-86868000D01*
X148590000Y-75438000D02*
X156210000Y-83058000D01*
X131572000Y-75438000D02*
X148590000Y-75438000D01*
X143256000Y-112268000D02*
X143256000Y-109982000D01*
X120650000Y-76962000D02*
X120650000Y-103124000D01*
X120650000Y-103124000D02*
X120396000Y-103378000D01*
X130048000Y-89662000D02*
X130048000Y-104140000D01*
X130048000Y-104140000D02*
X129794000Y-104394000D01*
X131572000Y-88138000D02*
X130048000Y-89662000D01*
X121666000Y-79502000D02*
X121666000Y-100838000D01*
X133350000Y-92456000D02*
X133350000Y-93218000D01*
X131572000Y-90678000D02*
X133350000Y-92456000D01*
X122936000Y-87413000D02*
X122936000Y-98298000D01*
X123952000Y-89408000D02*
X123952000Y-95758000D01*
X125222000Y-90678000D02*
X125222000Y-94234000D01*
X126492000Y-97282000D02*
X126492000Y-88646000D01*
X127762000Y-102108000D02*
X127762000Y-86360004D01*
M02*
