%FSLAX45Y45*%
G04 Gerber Fmt 4.5, Leading zero omitted, Abs format (unit mm)*
G04 Created by KiCad (PCBNEW 5.1.12-84ad8e8a86~92~ubuntu20.04.1) date 2022-09-18 19:08:10*
%MOMM*%
%LPD*%
G01*
G04 APERTURE LIST*
%TA.AperFunction,Profile*%
%ADD10C,0.050000*%
%TD*%
%ADD11C,0.200000*%
%ADD12C,0.300000*%
G04 APERTURE END LIST*
D10*
X11379200Y-11607800D02*
X11379200Y-7289800D01*
X15875000Y-11607800D02*
X11379200Y-11607800D01*
X15875000Y-7289800D02*
X15875000Y-11607800D01*
X11379200Y-7289800D02*
X15875000Y-7289800D01*
D11*
X12019600Y-10317800D02*
X12059600Y-10357800D01*
X12059600Y-10317800D02*
X12019600Y-10357800D01*
X12045000Y-7676200D02*
X12085000Y-7716200D01*
X12085000Y-7676200D02*
X12045000Y-7716200D01*
X12070400Y-11079800D02*
X12110400Y-11119800D01*
X12110400Y-11079800D02*
X12070400Y-11119800D01*
X12146600Y-7930200D02*
X12186600Y-7970200D01*
X12186600Y-7930200D02*
X12146600Y-7970200D01*
X12146600Y-10063800D02*
X12186600Y-10103800D01*
X12186600Y-10063800D02*
X12146600Y-10103800D01*
X12273600Y-8721300D02*
X12313600Y-8761300D01*
X12313600Y-8721300D02*
X12273600Y-8761300D01*
X12273600Y-9809800D02*
X12313600Y-9849800D01*
X12313600Y-9809800D02*
X12273600Y-9849800D01*
X12375200Y-8920800D02*
X12415200Y-8960800D01*
X12415200Y-8920800D02*
X12375200Y-8960800D01*
X12375200Y-9555800D02*
X12415200Y-9595800D01*
X12415200Y-9555800D02*
X12375200Y-9595800D01*
X12502200Y-9047800D02*
X12542200Y-9087800D01*
X12542200Y-9047800D02*
X12502200Y-9087800D01*
X12502200Y-9403400D02*
X12542200Y-9443400D01*
X12542200Y-9403400D02*
X12502200Y-9443400D01*
X12629200Y-8844600D02*
X12669200Y-8884600D01*
X12669200Y-8844600D02*
X12629200Y-8884600D01*
X12629200Y-9708200D02*
X12669200Y-9748200D01*
X12669200Y-9708200D02*
X12629200Y-9748200D01*
X12756200Y-8616000D02*
X12796200Y-8656000D01*
X12796200Y-8616000D02*
X12756200Y-8656000D01*
X12756200Y-10190800D02*
X12796200Y-10230800D01*
X12796200Y-10190800D02*
X12756200Y-10230800D01*
X12883200Y-8514400D02*
X12923200Y-8554400D01*
X12923200Y-8514400D02*
X12883200Y-8554400D01*
X12883200Y-9936800D02*
X12923200Y-9976800D01*
X12923200Y-9936800D02*
X12883200Y-9976800D01*
X12959400Y-10419400D02*
X12999400Y-10459400D01*
X12999400Y-10419400D02*
X12959400Y-10459400D01*
X13315000Y-9301800D02*
X13355000Y-9341800D01*
X13355000Y-9301800D02*
X13315000Y-9341800D01*
X13797600Y-10267000D02*
X13837600Y-10307000D01*
X13837600Y-10267000D02*
X13797600Y-10307000D01*
X13899200Y-10470200D02*
X13939200Y-10510200D01*
X13939200Y-10470200D02*
X13899200Y-10510200D01*
X13899200Y-10648000D02*
X13939200Y-10688000D01*
X13939200Y-10648000D02*
X13899200Y-10688000D01*
X14305600Y-10978200D02*
X14345600Y-11018200D01*
X14345600Y-10978200D02*
X14305600Y-11018200D01*
X14305600Y-11206800D02*
X14345600Y-11246800D01*
X14345600Y-11206800D02*
X14305600Y-11246800D01*
X15016800Y-9555800D02*
X15056800Y-9595800D01*
X15056800Y-9555800D02*
X15016800Y-9595800D01*
X15169200Y-9784400D02*
X15209200Y-9824400D01*
X15209200Y-9784400D02*
X15169200Y-9824400D01*
X11673200Y-7543800D02*
G75*
G03*
X11673200Y-7543800I-40000J0D01*
G01*
X11673200Y-7797800D02*
G75*
G03*
X11673200Y-7797800I-40000J0D01*
G01*
X11673200Y-8051800D02*
G75*
G03*
X11673200Y-8051800I-40000J0D01*
G01*
X11673200Y-8305800D02*
G75*
G03*
X11673200Y-8305800I-40000J0D01*
G01*
X11673200Y-8559800D02*
G75*
G03*
X11673200Y-8559800I-40000J0D01*
G01*
X11673200Y-8813800D02*
G75*
G03*
X11673200Y-8813800I-40000J0D01*
G01*
X11673200Y-9067800D02*
G75*
G03*
X11673200Y-9067800I-40000J0D01*
G01*
X11673200Y-9321800D02*
G75*
G03*
X11673200Y-9321800I-40000J0D01*
G01*
X11673200Y-9575800D02*
G75*
G03*
X11673200Y-9575800I-40000J0D01*
G01*
X11673200Y-9829800D02*
G75*
G03*
X11673200Y-9829800I-40000J0D01*
G01*
X11673200Y-10083800D02*
G75*
G03*
X11673200Y-10083800I-40000J0D01*
G01*
X11673200Y-10337800D02*
G75*
G03*
X11673200Y-10337800I-40000J0D01*
G01*
X11673200Y-10591800D02*
G75*
G03*
X11673200Y-10591800I-40000J0D01*
G01*
X11673200Y-10845800D02*
G75*
G03*
X11673200Y-10845800I-40000J0D01*
G01*
X11673200Y-11099800D02*
G75*
G03*
X11673200Y-11099800I-40000J0D01*
G01*
X11673200Y-11353800D02*
G75*
G03*
X11673200Y-11353800I-40000J0D01*
G01*
X13197200Y-7543800D02*
G75*
G03*
X13197200Y-7543800I-40000J0D01*
G01*
X13197200Y-7797800D02*
G75*
G03*
X13197200Y-7797800I-40000J0D01*
G01*
X13197200Y-8051800D02*
G75*
G03*
X13197200Y-8051800I-40000J0D01*
G01*
X13197200Y-8305800D02*
G75*
G03*
X13197200Y-8305800I-40000J0D01*
G01*
X13197200Y-8559800D02*
G75*
G03*
X13197200Y-8559800I-40000J0D01*
G01*
X13197200Y-8813800D02*
G75*
G03*
X13197200Y-8813800I-40000J0D01*
G01*
X13197200Y-9067800D02*
G75*
G03*
X13197200Y-9067800I-40000J0D01*
G01*
X13197200Y-9321800D02*
G75*
G03*
X13197200Y-9321800I-40000J0D01*
G01*
X13197200Y-9575800D02*
G75*
G03*
X13197200Y-9575800I-40000J0D01*
G01*
X13197200Y-9829800D02*
G75*
G03*
X13197200Y-9829800I-40000J0D01*
G01*
X13197200Y-10083800D02*
G75*
G03*
X13197200Y-10083800I-40000J0D01*
G01*
X13197200Y-10337800D02*
G75*
G03*
X13197200Y-10337800I-40000J0D01*
G01*
X13197200Y-10591800D02*
G75*
G03*
X13197200Y-10591800I-40000J0D01*
G01*
X13197200Y-10845800D02*
G75*
G03*
X13197200Y-10845800I-40000J0D01*
G01*
X13197200Y-11099800D02*
G75*
G03*
X13197200Y-11099800I-40000J0D01*
G01*
X13197200Y-11353800D02*
G75*
G03*
X13197200Y-11353800I-40000J0D01*
G01*
X13654400Y-8128000D02*
G75*
G03*
X13654400Y-8128000I-40000J0D01*
G01*
X13654400Y-8509000D02*
G75*
G03*
X13654400Y-8509000I-40000J0D01*
G01*
X13654400Y-8890000D02*
G75*
G03*
X13654400Y-8890000I-40000J0D01*
G01*
X13654400Y-9271000D02*
G75*
G03*
X13654400Y-9271000I-40000J0D01*
G01*
X13654400Y-9652000D02*
G75*
G03*
X13654400Y-9652000I-40000J0D01*
G01*
X13654400Y-10033000D02*
G75*
G03*
X13654400Y-10033000I-40000J0D01*
G01*
X13654400Y-10414000D02*
G75*
G03*
X13654400Y-10414000I-40000J0D01*
G01*
X13654400Y-10795000D02*
G75*
G03*
X13654400Y-10795000I-40000J0D01*
G01*
X14416400Y-8128000D02*
G75*
G03*
X14416400Y-8128000I-40000J0D01*
G01*
X14416400Y-8509000D02*
G75*
G03*
X14416400Y-8509000I-40000J0D01*
G01*
X14416400Y-8890000D02*
G75*
G03*
X14416400Y-8890000I-40000J0D01*
G01*
X14416400Y-9271000D02*
G75*
G03*
X14416400Y-9271000I-40000J0D01*
G01*
X14416400Y-9652000D02*
G75*
G03*
X14416400Y-9652000I-40000J0D01*
G01*
X14416400Y-10033000D02*
G75*
G03*
X14416400Y-10033000I-40000J0D01*
G01*
X14416400Y-10414000D02*
G75*
G03*
X14416400Y-10414000I-40000J0D01*
G01*
X14416400Y-10795000D02*
G75*
G03*
X14416400Y-10795000I-40000J0D01*
G01*
X14899000Y-8305800D02*
G75*
G03*
X14899000Y-8305800I-40000J0D01*
G01*
X14899000Y-8559800D02*
G75*
G03*
X14899000Y-8559800I-40000J0D01*
G01*
X14899000Y-8813800D02*
G75*
G03*
X14899000Y-8813800I-40000J0D01*
G01*
X14899000Y-9067800D02*
G75*
G03*
X14899000Y-9067800I-40000J0D01*
G01*
X14899000Y-9321800D02*
G75*
G03*
X14899000Y-9321800I-40000J0D01*
G01*
X14899000Y-9575800D02*
G75*
G03*
X14899000Y-9575800I-40000J0D01*
G01*
X14899000Y-9829800D02*
G75*
G03*
X14899000Y-9829800I-40000J0D01*
G01*
X14899000Y-10083800D02*
G75*
G03*
X14899000Y-10083800I-40000J0D01*
G01*
X14899000Y-10337800D02*
G75*
G03*
X14899000Y-10337800I-40000J0D01*
G01*
X14899000Y-10591800D02*
G75*
G03*
X14899000Y-10591800I-40000J0D01*
G01*
X15661000Y-8305800D02*
G75*
G03*
X15661000Y-8305800I-40000J0D01*
G01*
X15661000Y-8559800D02*
G75*
G03*
X15661000Y-8559800I-40000J0D01*
G01*
X15661000Y-8813800D02*
G75*
G03*
X15661000Y-8813800I-40000J0D01*
G01*
X15661000Y-9067800D02*
G75*
G03*
X15661000Y-9067800I-40000J0D01*
G01*
X15661000Y-9321800D02*
G75*
G03*
X15661000Y-9321800I-40000J0D01*
G01*
X15661000Y-9575800D02*
G75*
G03*
X15661000Y-9575800I-40000J0D01*
G01*
X15661000Y-9829800D02*
G75*
G03*
X15661000Y-9829800I-40000J0D01*
G01*
X15661000Y-10083800D02*
G75*
G03*
X15661000Y-10083800I-40000J0D01*
G01*
X15661000Y-10337800D02*
G75*
G03*
X15661000Y-10337800I-40000J0D01*
G01*
X15661000Y-10591800D02*
G75*
G03*
X15661000Y-10591800I-40000J0D01*
G01*
D12*
X11663128Y-12076014D02*
X11663128Y-11776014D01*
X11734557Y-11776014D01*
X11777414Y-11790300D01*
X11805986Y-11818871D01*
X11820271Y-11847443D01*
X11834557Y-11904586D01*
X11834557Y-11947443D01*
X11820271Y-12004586D01*
X11805986Y-12033157D01*
X11777414Y-12061729D01*
X11734557Y-12076014D01*
X11663128Y-12076014D01*
X11963128Y-12076014D02*
X11963128Y-11876014D01*
X11963128Y-11933157D02*
X11977414Y-11904586D01*
X11991700Y-11890300D01*
X12020271Y-11876014D01*
X12048843Y-11876014D01*
X12148843Y-12076014D02*
X12148843Y-11876014D01*
X12148843Y-11776014D02*
X12134557Y-11790300D01*
X12148843Y-11804586D01*
X12163128Y-11790300D01*
X12148843Y-11776014D01*
X12148843Y-11804586D01*
X12334557Y-12076014D02*
X12305986Y-12061729D01*
X12291700Y-12033157D01*
X12291700Y-11776014D01*
X12491700Y-12076014D02*
X12463128Y-12061729D01*
X12448843Y-12033157D01*
X12448843Y-11776014D01*
X12834557Y-12076014D02*
X12834557Y-11776014D01*
X12934557Y-11990300D01*
X13034557Y-11776014D01*
X13034557Y-12076014D01*
X13305986Y-12076014D02*
X13305986Y-11918871D01*
X13291700Y-11890300D01*
X13263128Y-11876014D01*
X13205986Y-11876014D01*
X13177414Y-11890300D01*
X13305986Y-12061729D02*
X13277414Y-12076014D01*
X13205986Y-12076014D01*
X13177414Y-12061729D01*
X13163128Y-12033157D01*
X13163128Y-12004586D01*
X13177414Y-11976014D01*
X13205986Y-11961729D01*
X13277414Y-11961729D01*
X13305986Y-11947443D01*
X13448843Y-11876014D02*
X13448843Y-12176014D01*
X13448843Y-11890300D02*
X13477414Y-11876014D01*
X13534557Y-11876014D01*
X13563128Y-11890300D01*
X13577414Y-11904586D01*
X13591700Y-11933157D01*
X13591700Y-12018871D01*
X13577414Y-12047443D01*
X13563128Y-12061729D01*
X13534557Y-12076014D01*
X13477414Y-12076014D01*
X13448843Y-12061729D01*
X13720271Y-12047443D02*
X13734557Y-12061729D01*
X13720271Y-12076014D01*
X13705986Y-12061729D01*
X13720271Y-12047443D01*
X13720271Y-12076014D01*
X13720271Y-11890300D02*
X13734557Y-11904586D01*
X13720271Y-11918871D01*
X13705986Y-11904586D01*
X13720271Y-11890300D01*
X13720271Y-11918871D01*
X11336700Y-12550300D02*
X11376700Y-12590300D01*
X11376700Y-12550300D02*
X11336700Y-12590300D01*
X11720271Y-12406014D02*
X11748843Y-12406014D01*
X11777414Y-12420300D01*
X11791700Y-12434586D01*
X11805986Y-12463157D01*
X11820271Y-12520300D01*
X11820271Y-12591729D01*
X11805986Y-12648871D01*
X11791700Y-12677443D01*
X11777414Y-12691729D01*
X11748843Y-12706014D01*
X11720271Y-12706014D01*
X11691700Y-12691729D01*
X11677414Y-12677443D01*
X11663128Y-12648871D01*
X11648843Y-12591729D01*
X11648843Y-12520300D01*
X11663128Y-12463157D01*
X11677414Y-12434586D01*
X11691700Y-12420300D01*
X11720271Y-12406014D01*
X11948843Y-12677443D02*
X11963128Y-12691729D01*
X11948843Y-12706014D01*
X11934557Y-12691729D01*
X11948843Y-12677443D01*
X11948843Y-12706014D01*
X12220271Y-12506014D02*
X12220271Y-12706014D01*
X12148843Y-12391729D02*
X12077414Y-12606014D01*
X12263128Y-12606014D01*
X12434557Y-12406014D02*
X12463128Y-12406014D01*
X12491700Y-12420300D01*
X12505986Y-12434586D01*
X12520271Y-12463157D01*
X12534557Y-12520300D01*
X12534557Y-12591729D01*
X12520271Y-12648871D01*
X12505986Y-12677443D01*
X12491700Y-12691729D01*
X12463128Y-12706014D01*
X12434557Y-12706014D01*
X12405986Y-12691729D01*
X12391700Y-12677443D01*
X12377414Y-12648871D01*
X12363128Y-12591729D01*
X12363128Y-12520300D01*
X12377414Y-12463157D01*
X12391700Y-12434586D01*
X12405986Y-12420300D01*
X12434557Y-12406014D01*
X12720271Y-12406014D02*
X12748843Y-12406014D01*
X12777414Y-12420300D01*
X12791700Y-12434586D01*
X12805986Y-12463157D01*
X12820271Y-12520300D01*
X12820271Y-12591729D01*
X12805986Y-12648871D01*
X12791700Y-12677443D01*
X12777414Y-12691729D01*
X12748843Y-12706014D01*
X12720271Y-12706014D01*
X12691700Y-12691729D01*
X12677414Y-12677443D01*
X12663128Y-12648871D01*
X12648843Y-12591729D01*
X12648843Y-12520300D01*
X12663128Y-12463157D01*
X12677414Y-12434586D01*
X12691700Y-12420300D01*
X12720271Y-12406014D01*
X12948843Y-12706014D02*
X12948843Y-12506014D01*
X12948843Y-12534586D02*
X12963128Y-12520300D01*
X12991700Y-12506014D01*
X13034557Y-12506014D01*
X13063128Y-12520300D01*
X13077414Y-12548871D01*
X13077414Y-12706014D01*
X13077414Y-12548871D02*
X13091700Y-12520300D01*
X13120271Y-12506014D01*
X13163128Y-12506014D01*
X13191700Y-12520300D01*
X13205986Y-12548871D01*
X13205986Y-12706014D01*
X13348843Y-12706014D02*
X13348843Y-12506014D01*
X13348843Y-12534586D02*
X13363128Y-12520300D01*
X13391700Y-12506014D01*
X13434557Y-12506014D01*
X13463128Y-12520300D01*
X13477414Y-12548871D01*
X13477414Y-12706014D01*
X13477414Y-12548871D02*
X13491700Y-12520300D01*
X13520271Y-12506014D01*
X13563128Y-12506014D01*
X13591700Y-12520300D01*
X13605986Y-12548871D01*
X13605986Y-12706014D01*
X14191700Y-12391729D02*
X13934557Y-12777443D01*
X14577414Y-12406014D02*
X14605986Y-12406014D01*
X14634557Y-12420300D01*
X14648843Y-12434586D01*
X14663128Y-12463157D01*
X14677414Y-12520300D01*
X14677414Y-12591729D01*
X14663128Y-12648871D01*
X14648843Y-12677443D01*
X14634557Y-12691729D01*
X14605986Y-12706014D01*
X14577414Y-12706014D01*
X14548843Y-12691729D01*
X14534557Y-12677443D01*
X14520271Y-12648871D01*
X14505986Y-12591729D01*
X14505986Y-12520300D01*
X14520271Y-12463157D01*
X14534557Y-12434586D01*
X14548843Y-12420300D01*
X14577414Y-12406014D01*
X14805986Y-12677443D02*
X14820271Y-12691729D01*
X14805986Y-12706014D01*
X14791700Y-12691729D01*
X14805986Y-12677443D01*
X14805986Y-12706014D01*
X15005986Y-12406014D02*
X15034557Y-12406014D01*
X15063128Y-12420300D01*
X15077414Y-12434586D01*
X15091700Y-12463157D01*
X15105986Y-12520300D01*
X15105986Y-12591729D01*
X15091700Y-12648871D01*
X15077414Y-12677443D01*
X15063128Y-12691729D01*
X15034557Y-12706014D01*
X15005986Y-12706014D01*
X14977414Y-12691729D01*
X14963128Y-12677443D01*
X14948843Y-12648871D01*
X14934557Y-12591729D01*
X14934557Y-12520300D01*
X14948843Y-12463157D01*
X14963128Y-12434586D01*
X14977414Y-12420300D01*
X15005986Y-12406014D01*
X15391700Y-12706014D02*
X15220271Y-12706014D01*
X15305986Y-12706014D02*
X15305986Y-12406014D01*
X15277414Y-12448871D01*
X15248843Y-12477443D01*
X15220271Y-12491729D01*
X15663128Y-12406014D02*
X15520271Y-12406014D01*
X15505986Y-12548871D01*
X15520271Y-12534586D01*
X15548843Y-12520300D01*
X15620271Y-12520300D01*
X15648843Y-12534586D01*
X15663128Y-12548871D01*
X15677414Y-12577443D01*
X15677414Y-12648871D01*
X15663128Y-12677443D01*
X15648843Y-12691729D01*
X15620271Y-12706014D01*
X15548843Y-12706014D01*
X15520271Y-12691729D01*
X15505986Y-12677443D01*
X15777414Y-12406014D02*
X15977414Y-12406014D01*
X15848843Y-12706014D01*
X16077414Y-12406014D02*
X16077414Y-12463157D01*
X16191700Y-12406014D02*
X16191700Y-12463157D01*
X16634557Y-12820300D02*
X16620271Y-12806014D01*
X16591700Y-12763157D01*
X16577414Y-12734586D01*
X16563128Y-12691729D01*
X16548843Y-12620300D01*
X16548843Y-12563157D01*
X16563128Y-12491729D01*
X16577414Y-12448871D01*
X16591700Y-12420300D01*
X16620271Y-12377443D01*
X16634557Y-12363157D01*
X16734557Y-12434586D02*
X16748843Y-12420300D01*
X16777414Y-12406014D01*
X16848843Y-12406014D01*
X16877414Y-12420300D01*
X16891700Y-12434586D01*
X16905986Y-12463157D01*
X16905986Y-12491729D01*
X16891700Y-12534586D01*
X16720271Y-12706014D01*
X16905986Y-12706014D01*
X17163128Y-12406014D02*
X17105986Y-12406014D01*
X17077414Y-12420300D01*
X17063128Y-12434586D01*
X17034557Y-12477443D01*
X17020271Y-12534586D01*
X17020271Y-12648871D01*
X17034557Y-12677443D01*
X17048843Y-12691729D01*
X17077414Y-12706014D01*
X17134557Y-12706014D01*
X17163128Y-12691729D01*
X17177414Y-12677443D01*
X17191700Y-12648871D01*
X17191700Y-12577443D01*
X17177414Y-12548871D01*
X17163128Y-12534586D01*
X17134557Y-12520300D01*
X17077414Y-12520300D01*
X17048843Y-12534586D01*
X17034557Y-12548871D01*
X17020271Y-12577443D01*
X17548843Y-12706014D02*
X17548843Y-12406014D01*
X17677414Y-12706014D02*
X17677414Y-12548871D01*
X17663128Y-12520300D01*
X17634557Y-12506014D01*
X17591700Y-12506014D01*
X17563128Y-12520300D01*
X17548843Y-12534586D01*
X17863128Y-12706014D02*
X17834557Y-12691729D01*
X17820271Y-12677443D01*
X17805986Y-12648871D01*
X17805986Y-12563157D01*
X17820271Y-12534586D01*
X17834557Y-12520300D01*
X17863128Y-12506014D01*
X17905986Y-12506014D01*
X17934557Y-12520300D01*
X17948843Y-12534586D01*
X17963128Y-12563157D01*
X17963128Y-12648871D01*
X17948843Y-12677443D01*
X17934557Y-12691729D01*
X17905986Y-12706014D01*
X17863128Y-12706014D01*
X18134557Y-12706014D02*
X18105986Y-12691729D01*
X18091700Y-12663157D01*
X18091700Y-12406014D01*
X18363128Y-12691729D02*
X18334557Y-12706014D01*
X18277414Y-12706014D01*
X18248843Y-12691729D01*
X18234557Y-12663157D01*
X18234557Y-12548871D01*
X18248843Y-12520300D01*
X18277414Y-12506014D01*
X18334557Y-12506014D01*
X18363128Y-12520300D01*
X18377414Y-12548871D01*
X18377414Y-12577443D01*
X18234557Y-12606014D01*
X18491700Y-12691729D02*
X18520271Y-12706014D01*
X18577414Y-12706014D01*
X18605986Y-12691729D01*
X18620271Y-12663157D01*
X18620271Y-12648871D01*
X18605986Y-12620300D01*
X18577414Y-12606014D01*
X18534557Y-12606014D01*
X18505986Y-12591729D01*
X18491700Y-12563157D01*
X18491700Y-12548871D01*
X18505986Y-12520300D01*
X18534557Y-12506014D01*
X18577414Y-12506014D01*
X18605986Y-12520300D01*
X18720271Y-12820300D02*
X18734557Y-12806014D01*
X18763128Y-12763157D01*
X18777414Y-12734586D01*
X18791700Y-12691729D01*
X18805986Y-12620300D01*
X18805986Y-12563157D01*
X18791700Y-12491729D01*
X18777414Y-12448871D01*
X18763128Y-12420300D01*
X18734557Y-12377443D01*
X18720271Y-12363157D01*
X11376700Y-12966300D02*
G75*
G03*
X11376700Y-12966300I-40000J0D01*
G01*
X11720271Y-12802014D02*
X11748843Y-12802014D01*
X11777414Y-12816300D01*
X11791700Y-12830586D01*
X11805986Y-12859157D01*
X11820271Y-12916300D01*
X11820271Y-12987729D01*
X11805986Y-13044871D01*
X11791700Y-13073443D01*
X11777414Y-13087729D01*
X11748843Y-13102014D01*
X11720271Y-13102014D01*
X11691700Y-13087729D01*
X11677414Y-13073443D01*
X11663128Y-13044871D01*
X11648843Y-12987729D01*
X11648843Y-12916300D01*
X11663128Y-12859157D01*
X11677414Y-12830586D01*
X11691700Y-12816300D01*
X11720271Y-12802014D01*
X11948843Y-13073443D02*
X11963128Y-13087729D01*
X11948843Y-13102014D01*
X11934557Y-13087729D01*
X11948843Y-13073443D01*
X11948843Y-13102014D01*
X12134557Y-12930586D02*
X12105986Y-12916300D01*
X12091700Y-12902014D01*
X12077414Y-12873443D01*
X12077414Y-12859157D01*
X12091700Y-12830586D01*
X12105986Y-12816300D01*
X12134557Y-12802014D01*
X12191700Y-12802014D01*
X12220271Y-12816300D01*
X12234557Y-12830586D01*
X12248843Y-12859157D01*
X12248843Y-12873443D01*
X12234557Y-12902014D01*
X12220271Y-12916300D01*
X12191700Y-12930586D01*
X12134557Y-12930586D01*
X12105986Y-12944871D01*
X12091700Y-12959157D01*
X12077414Y-12987729D01*
X12077414Y-13044871D01*
X12091700Y-13073443D01*
X12105986Y-13087729D01*
X12134557Y-13102014D01*
X12191700Y-13102014D01*
X12220271Y-13087729D01*
X12234557Y-13073443D01*
X12248843Y-13044871D01*
X12248843Y-12987729D01*
X12234557Y-12959157D01*
X12220271Y-12944871D01*
X12191700Y-12930586D01*
X12434557Y-12802014D02*
X12463128Y-12802014D01*
X12491700Y-12816300D01*
X12505986Y-12830586D01*
X12520271Y-12859157D01*
X12534557Y-12916300D01*
X12534557Y-12987729D01*
X12520271Y-13044871D01*
X12505986Y-13073443D01*
X12491700Y-13087729D01*
X12463128Y-13102014D01*
X12434557Y-13102014D01*
X12405986Y-13087729D01*
X12391700Y-13073443D01*
X12377414Y-13044871D01*
X12363128Y-12987729D01*
X12363128Y-12916300D01*
X12377414Y-12859157D01*
X12391700Y-12830586D01*
X12405986Y-12816300D01*
X12434557Y-12802014D01*
X12720271Y-12802014D02*
X12748843Y-12802014D01*
X12777414Y-12816300D01*
X12791700Y-12830586D01*
X12805986Y-12859157D01*
X12820271Y-12916300D01*
X12820271Y-12987729D01*
X12805986Y-13044871D01*
X12791700Y-13073443D01*
X12777414Y-13087729D01*
X12748843Y-13102014D01*
X12720271Y-13102014D01*
X12691700Y-13087729D01*
X12677414Y-13073443D01*
X12663128Y-13044871D01*
X12648843Y-12987729D01*
X12648843Y-12916300D01*
X12663128Y-12859157D01*
X12677414Y-12830586D01*
X12691700Y-12816300D01*
X12720271Y-12802014D01*
X12948843Y-13102014D02*
X12948843Y-12902014D01*
X12948843Y-12930586D02*
X12963128Y-12916300D01*
X12991700Y-12902014D01*
X13034557Y-12902014D01*
X13063128Y-12916300D01*
X13077414Y-12944871D01*
X13077414Y-13102014D01*
X13077414Y-12944871D02*
X13091700Y-12916300D01*
X13120271Y-12902014D01*
X13163128Y-12902014D01*
X13191700Y-12916300D01*
X13205986Y-12944871D01*
X13205986Y-13102014D01*
X13348843Y-13102014D02*
X13348843Y-12902014D01*
X13348843Y-12930586D02*
X13363128Y-12916300D01*
X13391700Y-12902014D01*
X13434557Y-12902014D01*
X13463128Y-12916300D01*
X13477414Y-12944871D01*
X13477414Y-13102014D01*
X13477414Y-12944871D02*
X13491700Y-12916300D01*
X13520271Y-12902014D01*
X13563128Y-12902014D01*
X13591700Y-12916300D01*
X13605986Y-12944871D01*
X13605986Y-13102014D01*
X14191700Y-12787729D02*
X13934557Y-13173443D01*
X14577414Y-12802014D02*
X14605986Y-12802014D01*
X14634557Y-12816300D01*
X14648843Y-12830586D01*
X14663128Y-12859157D01*
X14677414Y-12916300D01*
X14677414Y-12987729D01*
X14663128Y-13044871D01*
X14648843Y-13073443D01*
X14634557Y-13087729D01*
X14605986Y-13102014D01*
X14577414Y-13102014D01*
X14548843Y-13087729D01*
X14534557Y-13073443D01*
X14520271Y-13044871D01*
X14505986Y-12987729D01*
X14505986Y-12916300D01*
X14520271Y-12859157D01*
X14534557Y-12830586D01*
X14548843Y-12816300D01*
X14577414Y-12802014D01*
X14805986Y-13073443D02*
X14820271Y-13087729D01*
X14805986Y-13102014D01*
X14791700Y-13087729D01*
X14805986Y-13073443D01*
X14805986Y-13102014D01*
X15005986Y-12802014D02*
X15034557Y-12802014D01*
X15063128Y-12816300D01*
X15077414Y-12830586D01*
X15091700Y-12859157D01*
X15105986Y-12916300D01*
X15105986Y-12987729D01*
X15091700Y-13044871D01*
X15077414Y-13073443D01*
X15063128Y-13087729D01*
X15034557Y-13102014D01*
X15005986Y-13102014D01*
X14977414Y-13087729D01*
X14963128Y-13073443D01*
X14948843Y-13044871D01*
X14934557Y-12987729D01*
X14934557Y-12916300D01*
X14948843Y-12859157D01*
X14963128Y-12830586D01*
X14977414Y-12816300D01*
X15005986Y-12802014D01*
X15205986Y-12802014D02*
X15391700Y-12802014D01*
X15291700Y-12916300D01*
X15334557Y-12916300D01*
X15363128Y-12930586D01*
X15377414Y-12944871D01*
X15391700Y-12973443D01*
X15391700Y-13044871D01*
X15377414Y-13073443D01*
X15363128Y-13087729D01*
X15334557Y-13102014D01*
X15248843Y-13102014D01*
X15220271Y-13087729D01*
X15205986Y-13073443D01*
X15677414Y-13102014D02*
X15505986Y-13102014D01*
X15591700Y-13102014D02*
X15591700Y-12802014D01*
X15563128Y-12844871D01*
X15534557Y-12873443D01*
X15505986Y-12887729D01*
X15948843Y-12802014D02*
X15805986Y-12802014D01*
X15791700Y-12944871D01*
X15805986Y-12930586D01*
X15834557Y-12916300D01*
X15905986Y-12916300D01*
X15934557Y-12930586D01*
X15948843Y-12944871D01*
X15963128Y-12973443D01*
X15963128Y-13044871D01*
X15948843Y-13073443D01*
X15934557Y-13087729D01*
X15905986Y-13102014D01*
X15834557Y-13102014D01*
X15805986Y-13087729D01*
X15791700Y-13073443D01*
X16077414Y-12802014D02*
X16077414Y-12859157D01*
X16191700Y-12802014D02*
X16191700Y-12859157D01*
X16634557Y-13216300D02*
X16620271Y-13202014D01*
X16591700Y-13159157D01*
X16577414Y-13130586D01*
X16563128Y-13087729D01*
X16548843Y-13016300D01*
X16548843Y-12959157D01*
X16563128Y-12887729D01*
X16577414Y-12844871D01*
X16591700Y-12816300D01*
X16620271Y-12773443D01*
X16634557Y-12759157D01*
X16877414Y-12802014D02*
X16820271Y-12802014D01*
X16791700Y-12816300D01*
X16777414Y-12830586D01*
X16748843Y-12873443D01*
X16734557Y-12930586D01*
X16734557Y-13044871D01*
X16748843Y-13073443D01*
X16763128Y-13087729D01*
X16791700Y-13102014D01*
X16848843Y-13102014D01*
X16877414Y-13087729D01*
X16891700Y-13073443D01*
X16905986Y-13044871D01*
X16905986Y-12973443D01*
X16891700Y-12944871D01*
X16877414Y-12930586D01*
X16848843Y-12916300D01*
X16791700Y-12916300D01*
X16763128Y-12930586D01*
X16748843Y-12944871D01*
X16734557Y-12973443D01*
X17077414Y-12930586D02*
X17048843Y-12916300D01*
X17034557Y-12902014D01*
X17020271Y-12873443D01*
X17020271Y-12859157D01*
X17034557Y-12830586D01*
X17048843Y-12816300D01*
X17077414Y-12802014D01*
X17134557Y-12802014D01*
X17163128Y-12816300D01*
X17177414Y-12830586D01*
X17191700Y-12859157D01*
X17191700Y-12873443D01*
X17177414Y-12902014D01*
X17163128Y-12916300D01*
X17134557Y-12930586D01*
X17077414Y-12930586D01*
X17048843Y-12944871D01*
X17034557Y-12959157D01*
X17020271Y-12987729D01*
X17020271Y-13044871D01*
X17034557Y-13073443D01*
X17048843Y-13087729D01*
X17077414Y-13102014D01*
X17134557Y-13102014D01*
X17163128Y-13087729D01*
X17177414Y-13073443D01*
X17191700Y-13044871D01*
X17191700Y-12987729D01*
X17177414Y-12959157D01*
X17163128Y-12944871D01*
X17134557Y-12930586D01*
X17548843Y-13102014D02*
X17548843Y-12802014D01*
X17677414Y-13102014D02*
X17677414Y-12944871D01*
X17663128Y-12916300D01*
X17634557Y-12902014D01*
X17591700Y-12902014D01*
X17563128Y-12916300D01*
X17548843Y-12930586D01*
X17863128Y-13102014D02*
X17834557Y-13087729D01*
X17820271Y-13073443D01*
X17805986Y-13044871D01*
X17805986Y-12959157D01*
X17820271Y-12930586D01*
X17834557Y-12916300D01*
X17863128Y-12902014D01*
X17905986Y-12902014D01*
X17934557Y-12916300D01*
X17948843Y-12930586D01*
X17963128Y-12959157D01*
X17963128Y-13044871D01*
X17948843Y-13073443D01*
X17934557Y-13087729D01*
X17905986Y-13102014D01*
X17863128Y-13102014D01*
X18134557Y-13102014D02*
X18105986Y-13087729D01*
X18091700Y-13059157D01*
X18091700Y-12802014D01*
X18363128Y-13087729D02*
X18334557Y-13102014D01*
X18277414Y-13102014D01*
X18248843Y-13087729D01*
X18234557Y-13059157D01*
X18234557Y-12944871D01*
X18248843Y-12916300D01*
X18277414Y-12902014D01*
X18334557Y-12902014D01*
X18363128Y-12916300D01*
X18377414Y-12944871D01*
X18377414Y-12973443D01*
X18234557Y-13002014D01*
X18491700Y-13087729D02*
X18520271Y-13102014D01*
X18577414Y-13102014D01*
X18605986Y-13087729D01*
X18620271Y-13059157D01*
X18620271Y-13044871D01*
X18605986Y-13016300D01*
X18577414Y-13002014D01*
X18534557Y-13002014D01*
X18505986Y-12987729D01*
X18491700Y-12959157D01*
X18491700Y-12944871D01*
X18505986Y-12916300D01*
X18534557Y-12902014D01*
X18577414Y-12902014D01*
X18605986Y-12916300D01*
X18720271Y-13216300D02*
X18734557Y-13202014D01*
X18763128Y-13159157D01*
X18777414Y-13130586D01*
X18791700Y-13087729D01*
X18805986Y-13016300D01*
X18805986Y-12959157D01*
X18791700Y-12887729D01*
X18777414Y-12844871D01*
X18763128Y-12816300D01*
X18734557Y-12773443D01*
X18720271Y-12759157D01*
M02*
