G04 #@! TF.GenerationSoftware,KiCad,Pcbnew,5.1.12-84ad8e8a86~92~ubuntu20.04.1*
G04 #@! TF.CreationDate,2022-09-18T19:07:34-04:00*
G04 #@! TF.ProjectId,pal-dumper,70616c2d-6475-46d7-9065-722e6b696361,v1.0*
G04 #@! TF.SameCoordinates,Original*
G04 #@! TF.FileFunction,Legend,Top*
G04 #@! TF.FilePolarity,Positive*
%FSLAX46Y46*%
G04 Gerber Fmt 4.6, Leading zero omitted, Abs format (unit mm)*
G04 Created by KiCad (PCBNEW 5.1.12-84ad8e8a86~92~ubuntu20.04.1) date 2022-09-18 19:07:34*
%MOMM*%
%LPD*%
G01*
G04 APERTURE LIST*
%ADD10C,0.254000*%
%ADD11C,0.300000*%
%ADD12C,0.120000*%
%ADD13O,1.600000X1.600000*%
%ADD14C,1.600000*%
%ADD15R,1.600000X1.600000*%
G04 APERTURE END LIST*
D10*
X139034761Y-78806523D02*
X138611428Y-78201761D01*
X138309047Y-78806523D02*
X138309047Y-77536523D01*
X138792857Y-77536523D01*
X138913809Y-77597000D01*
X138974285Y-77657476D01*
X139034761Y-77778428D01*
X139034761Y-77959857D01*
X138974285Y-78080809D01*
X138913809Y-78141285D01*
X138792857Y-78201761D01*
X138309047Y-78201761D01*
X140062857Y-78746047D02*
X139941904Y-78806523D01*
X139700000Y-78806523D01*
X139579047Y-78746047D01*
X139518571Y-78625095D01*
X139518571Y-78141285D01*
X139579047Y-78020333D01*
X139700000Y-77959857D01*
X139941904Y-77959857D01*
X140062857Y-78020333D01*
X140123333Y-78141285D01*
X140123333Y-78262238D01*
X139518571Y-78383190D01*
X141211904Y-78806523D02*
X141211904Y-78141285D01*
X141151428Y-78020333D01*
X141030476Y-77959857D01*
X140788571Y-77959857D01*
X140667619Y-78020333D01*
X141211904Y-78746047D02*
X141090952Y-78806523D01*
X140788571Y-78806523D01*
X140667619Y-78746047D01*
X140607142Y-78625095D01*
X140607142Y-78504142D01*
X140667619Y-78383190D01*
X140788571Y-78322714D01*
X141090952Y-78322714D01*
X141211904Y-78262238D01*
X142360952Y-78806523D02*
X142360952Y-77536523D01*
X142360952Y-78746047D02*
X142240000Y-78806523D01*
X141998095Y-78806523D01*
X141877142Y-78746047D01*
X141816666Y-78685571D01*
X141756190Y-78564619D01*
X141756190Y-78201761D01*
X141816666Y-78080809D01*
X141877142Y-78020333D01*
X141998095Y-77959857D01*
X142240000Y-77959857D01*
X142360952Y-78020333D01*
X144477619Y-78806523D02*
X144477619Y-78141285D01*
X144417142Y-78020333D01*
X144296190Y-77959857D01*
X144054285Y-77959857D01*
X143933333Y-78020333D01*
X144477619Y-78746047D02*
X144356666Y-78806523D01*
X144054285Y-78806523D01*
X143933333Y-78746047D01*
X143872857Y-78625095D01*
X143872857Y-78504142D01*
X143933333Y-78383190D01*
X144054285Y-78322714D01*
X144356666Y-78322714D01*
X144477619Y-78262238D01*
X145021904Y-78746047D02*
X145142857Y-78806523D01*
X145384761Y-78806523D01*
X145505714Y-78746047D01*
X145566190Y-78625095D01*
X145566190Y-78564619D01*
X145505714Y-78443666D01*
X145384761Y-78383190D01*
X145203333Y-78383190D01*
X145082380Y-78322714D01*
X145021904Y-78201761D01*
X145021904Y-78141285D01*
X145082380Y-78020333D01*
X145203333Y-77959857D01*
X145384761Y-77959857D01*
X145505714Y-78020333D01*
X147017619Y-77657476D02*
X147078095Y-77597000D01*
X147199047Y-77536523D01*
X147501428Y-77536523D01*
X147622380Y-77597000D01*
X147682857Y-77657476D01*
X147743333Y-77778428D01*
X147743333Y-77899380D01*
X147682857Y-78080809D01*
X146957142Y-78806523D01*
X147743333Y-78806523D01*
X148166666Y-77536523D02*
X149013333Y-77536523D01*
X148469047Y-78806523D01*
X150222857Y-78685571D02*
X150162380Y-78746047D01*
X149980952Y-78806523D01*
X149860000Y-78806523D01*
X149678571Y-78746047D01*
X149557619Y-78625095D01*
X149497142Y-78504142D01*
X149436666Y-78262238D01*
X149436666Y-78080809D01*
X149497142Y-77838904D01*
X149557619Y-77717952D01*
X149678571Y-77597000D01*
X149860000Y-77536523D01*
X149980952Y-77536523D01*
X150162380Y-77597000D01*
X150222857Y-77657476D01*
X151009047Y-77536523D02*
X151130000Y-77536523D01*
X151250952Y-77597000D01*
X151311428Y-77657476D01*
X151371904Y-77778428D01*
X151432380Y-78020333D01*
X151432380Y-78322714D01*
X151371904Y-78564619D01*
X151311428Y-78685571D01*
X151250952Y-78746047D01*
X151130000Y-78806523D01*
X151009047Y-78806523D01*
X150888095Y-78746047D01*
X150827619Y-78685571D01*
X150767142Y-78564619D01*
X150706666Y-78322714D01*
X150706666Y-78020333D01*
X150767142Y-77778428D01*
X150827619Y-77657476D01*
X150888095Y-77597000D01*
X151009047Y-77536523D01*
X151916190Y-77657476D02*
X151976666Y-77597000D01*
X152097619Y-77536523D01*
X152400000Y-77536523D01*
X152520952Y-77597000D01*
X152581428Y-77657476D01*
X152641904Y-77778428D01*
X152641904Y-77899380D01*
X152581428Y-78080809D01*
X151855714Y-78806523D01*
X152641904Y-78806523D01*
X153428095Y-77536523D02*
X153549047Y-77536523D01*
X153670000Y-77597000D01*
X153730476Y-77657476D01*
X153790952Y-77778428D01*
X153851428Y-78020333D01*
X153851428Y-78322714D01*
X153790952Y-78564619D01*
X153730476Y-78685571D01*
X153670000Y-78746047D01*
X153549047Y-78806523D01*
X153428095Y-78806523D01*
X153307142Y-78746047D01*
X153246666Y-78685571D01*
X153186190Y-78564619D01*
X153125714Y-78322714D01*
X153125714Y-78020333D01*
X153186190Y-77778428D01*
X153246666Y-77657476D01*
X153307142Y-77597000D01*
X153428095Y-77536523D01*
X149158476Y-112346619D02*
X149158476Y-111669285D01*
X149158476Y-111766047D02*
X149206857Y-111717666D01*
X149303619Y-111669285D01*
X149448761Y-111669285D01*
X149545523Y-111717666D01*
X149593904Y-111814428D01*
X149593904Y-112346619D01*
X149593904Y-111814428D02*
X149642285Y-111717666D01*
X149739047Y-111669285D01*
X149884190Y-111669285D01*
X149980952Y-111717666D01*
X150029333Y-111814428D01*
X150029333Y-112346619D01*
X150948571Y-112346619D02*
X150948571Y-111330619D01*
X150948571Y-112298238D02*
X150851809Y-112346619D01*
X150658285Y-112346619D01*
X150561523Y-112298238D01*
X150513142Y-112249857D01*
X150464761Y-112153095D01*
X150464761Y-111862809D01*
X150513142Y-111766047D01*
X150561523Y-111717666D01*
X150658285Y-111669285D01*
X150851809Y-111669285D01*
X150948571Y-111717666D01*
X151819428Y-112298238D02*
X151722666Y-112346619D01*
X151529142Y-112346619D01*
X151432380Y-112298238D01*
X151384000Y-112201476D01*
X151384000Y-111814428D01*
X151432380Y-111717666D01*
X151529142Y-111669285D01*
X151722666Y-111669285D01*
X151819428Y-111717666D01*
X151867809Y-111814428D01*
X151867809Y-111911190D01*
X151384000Y-112007952D01*
X152254857Y-112298238D02*
X152351619Y-112346619D01*
X152545142Y-112346619D01*
X152641904Y-112298238D01*
X152690285Y-112201476D01*
X152690285Y-112153095D01*
X152641904Y-112056333D01*
X152545142Y-112007952D01*
X152400000Y-112007952D01*
X152303238Y-111959571D01*
X152254857Y-111862809D01*
X152254857Y-111814428D01*
X152303238Y-111717666D01*
X152400000Y-111669285D01*
X152545142Y-111669285D01*
X152641904Y-111717666D01*
X153270857Y-112346619D02*
X153174095Y-112298238D01*
X153125714Y-112201476D01*
X153125714Y-111330619D01*
X154093333Y-112346619D02*
X154093333Y-111814428D01*
X154044952Y-111717666D01*
X153948190Y-111669285D01*
X153754666Y-111669285D01*
X153657904Y-111717666D01*
X154093333Y-112298238D02*
X153996571Y-112346619D01*
X153754666Y-112346619D01*
X153657904Y-112298238D01*
X153609523Y-112201476D01*
X153609523Y-112104714D01*
X153657904Y-112007952D01*
X153754666Y-111959571D01*
X153996571Y-111959571D01*
X154093333Y-111911190D01*
X155012571Y-111669285D02*
X155012571Y-112346619D01*
X154577142Y-111669285D02*
X154577142Y-112201476D01*
X154625523Y-112298238D01*
X154722285Y-112346619D01*
X154867428Y-112346619D01*
X154964190Y-112298238D01*
X155012571Y-112249857D01*
X155496380Y-112346619D02*
X155496380Y-111669285D01*
X155496380Y-111862809D02*
X155544761Y-111766047D01*
X155593142Y-111717666D01*
X155689904Y-111669285D01*
X155786666Y-111669285D01*
X150948571Y-113447285D02*
X151190476Y-114124619D01*
X151432380Y-113447285D01*
X152351619Y-114124619D02*
X151771047Y-114124619D01*
X152061333Y-114124619D02*
X152061333Y-113108619D01*
X151964571Y-113253761D01*
X151867809Y-113350523D01*
X151771047Y-113398904D01*
X152787047Y-114027857D02*
X152835428Y-114076238D01*
X152787047Y-114124619D01*
X152738666Y-114076238D01*
X152787047Y-114027857D01*
X152787047Y-114124619D01*
X153464380Y-113108619D02*
X153561142Y-113108619D01*
X153657904Y-113157000D01*
X153706285Y-113205380D01*
X153754666Y-113302142D01*
X153803047Y-113495666D01*
X153803047Y-113737571D01*
X153754666Y-113931095D01*
X153706285Y-114027857D01*
X153657904Y-114076238D01*
X153561142Y-114124619D01*
X153464380Y-114124619D01*
X153367619Y-114076238D01*
X153319238Y-114027857D01*
X153270857Y-113931095D01*
X153222476Y-113737571D01*
X153222476Y-113495666D01*
X153270857Y-113302142D01*
X153319238Y-113205380D01*
X153367619Y-113157000D01*
X153464380Y-113108619D01*
D11*
X139264285Y-76370571D02*
X139264285Y-74870571D01*
X139835714Y-74870571D01*
X139978571Y-74942000D01*
X140050000Y-75013428D01*
X140121428Y-75156285D01*
X140121428Y-75370571D01*
X140050000Y-75513428D01*
X139978571Y-75584857D01*
X139835714Y-75656285D01*
X139264285Y-75656285D01*
X140692857Y-75942000D02*
X141407142Y-75942000D01*
X140550000Y-76370571D02*
X141050000Y-74870571D01*
X141550000Y-76370571D01*
X142764285Y-76370571D02*
X142050000Y-76370571D01*
X142050000Y-74870571D01*
X144407142Y-76370571D02*
X144407142Y-74870571D01*
X144764285Y-74870571D01*
X144978571Y-74942000D01*
X145121428Y-75084857D01*
X145192857Y-75227714D01*
X145264285Y-75513428D01*
X145264285Y-75727714D01*
X145192857Y-76013428D01*
X145121428Y-76156285D01*
X144978571Y-76299142D01*
X144764285Y-76370571D01*
X144407142Y-76370571D01*
X145907142Y-74870571D02*
X145907142Y-76084857D01*
X145978571Y-76227714D01*
X146050000Y-76299142D01*
X146192857Y-76370571D01*
X146478571Y-76370571D01*
X146621428Y-76299142D01*
X146692857Y-76227714D01*
X146764285Y-76084857D01*
X146764285Y-74870571D01*
X147478571Y-76370571D02*
X147478571Y-74870571D01*
X147978571Y-75942000D01*
X148478571Y-74870571D01*
X148478571Y-76370571D01*
X149192857Y-76370571D02*
X149192857Y-74870571D01*
X149764285Y-74870571D01*
X149907142Y-74942000D01*
X149978571Y-75013428D01*
X150050000Y-75156285D01*
X150050000Y-75370571D01*
X149978571Y-75513428D01*
X149907142Y-75584857D01*
X149764285Y-75656285D01*
X149192857Y-75656285D01*
X150692857Y-75584857D02*
X151192857Y-75584857D01*
X151407142Y-76370571D02*
X150692857Y-76370571D01*
X150692857Y-74870571D01*
X151407142Y-74870571D01*
X152907142Y-76370571D02*
X152407142Y-75656285D01*
X152050000Y-76370571D02*
X152050000Y-74870571D01*
X152621428Y-74870571D01*
X152764285Y-74942000D01*
X152835714Y-75013428D01*
X152907142Y-75156285D01*
X152907142Y-75370571D01*
X152835714Y-75513428D01*
X152764285Y-75584857D01*
X152621428Y-75656285D01*
X152050000Y-75656285D01*
D12*
X136684000Y-91340000D02*
X136684000Y-91670000D01*
X143224000Y-91340000D02*
X136684000Y-91340000D01*
X143224000Y-91670000D02*
X143224000Y-91340000D01*
X136684000Y-94080000D02*
X136684000Y-93750000D01*
X143224000Y-94080000D02*
X136684000Y-94080000D01*
X143224000Y-93750000D02*
X143224000Y-94080000D01*
X157540000Y-81668000D02*
X147260000Y-81668000D01*
X157540000Y-107308000D02*
X157540000Y-81668000D01*
X147260000Y-107308000D02*
X157540000Y-107308000D01*
X147260000Y-81668000D02*
X147260000Y-107308000D01*
X155050000Y-81728000D02*
X153400000Y-81728000D01*
X155050000Y-107248000D02*
X155050000Y-81728000D01*
X149750000Y-107248000D02*
X155050000Y-107248000D01*
X149750000Y-81728000D02*
X149750000Y-107248000D01*
X151400000Y-81728000D02*
X149750000Y-81728000D01*
X153400000Y-81728000D02*
G75*
G02*
X151400000Y-81728000I-1000000J0D01*
G01*
X132902000Y-74048000D02*
X115002000Y-74048000D01*
X132902000Y-114928000D02*
X132902000Y-74048000D01*
X115002000Y-114928000D02*
X132902000Y-114928000D01*
X115002000Y-74048000D02*
X115002000Y-114928000D01*
X130412000Y-74108000D02*
X124952000Y-74108000D01*
X130412000Y-114868000D02*
X130412000Y-74108000D01*
X117492000Y-114868000D02*
X130412000Y-114868000D01*
X117492000Y-74108000D02*
X117492000Y-114868000D01*
X122952000Y-74108000D02*
X117492000Y-74108000D01*
X124952000Y-74108000D02*
G75*
G02*
X122952000Y-74108000I-1000000J0D01*
G01*
X136684000Y-79910000D02*
X136684000Y-80240000D01*
X143224000Y-79910000D02*
X136684000Y-79910000D01*
X143224000Y-80240000D02*
X143224000Y-79910000D01*
X136684000Y-82650000D02*
X136684000Y-82320000D01*
X143224000Y-82650000D02*
X136684000Y-82650000D01*
X143224000Y-82320000D02*
X143224000Y-82650000D01*
X136684000Y-83720000D02*
X136684000Y-84050000D01*
X143224000Y-83720000D02*
X136684000Y-83720000D01*
X143224000Y-84050000D02*
X143224000Y-83720000D01*
X136684000Y-86460000D02*
X136684000Y-86130000D01*
X143224000Y-86460000D02*
X136684000Y-86460000D01*
X143224000Y-86130000D02*
X143224000Y-86460000D01*
X136684000Y-87530000D02*
X136684000Y-87860000D01*
X143224000Y-87530000D02*
X136684000Y-87530000D01*
X143224000Y-87860000D02*
X143224000Y-87530000D01*
X136684000Y-90270000D02*
X136684000Y-89940000D01*
X143224000Y-90270000D02*
X136684000Y-90270000D01*
X143224000Y-89940000D02*
X143224000Y-90270000D01*
X136684000Y-95150000D02*
X136684000Y-95480000D01*
X143224000Y-95150000D02*
X136684000Y-95150000D01*
X143224000Y-95480000D02*
X143224000Y-95150000D01*
X136684000Y-97890000D02*
X136684000Y-97560000D01*
X143224000Y-97890000D02*
X136684000Y-97890000D01*
X143224000Y-97560000D02*
X143224000Y-97890000D01*
X136684000Y-98960000D02*
X136684000Y-99290000D01*
X143224000Y-98960000D02*
X136684000Y-98960000D01*
X143224000Y-99290000D02*
X143224000Y-98960000D01*
X136684000Y-101700000D02*
X136684000Y-101370000D01*
X143224000Y-101700000D02*
X136684000Y-101700000D01*
X143224000Y-101370000D02*
X143224000Y-101700000D01*
X136684000Y-102770000D02*
X136684000Y-103100000D01*
X143224000Y-102770000D02*
X136684000Y-102770000D01*
X143224000Y-103100000D02*
X143224000Y-102770000D01*
X136684000Y-105510000D02*
X136684000Y-105180000D01*
X143224000Y-105510000D02*
X136684000Y-105510000D01*
X143224000Y-105180000D02*
X143224000Y-105510000D01*
X136684000Y-106580000D02*
X136684000Y-106910000D01*
X143224000Y-106580000D02*
X136684000Y-106580000D01*
X143224000Y-106910000D02*
X143224000Y-106580000D01*
X136684000Y-109320000D02*
X136684000Y-108990000D01*
X143224000Y-109320000D02*
X136684000Y-109320000D01*
X143224000Y-108990000D02*
X143224000Y-109320000D01*
%LPC*%
D13*
X136144000Y-92710000D03*
D14*
X143764000Y-92710000D03*
D13*
X156210000Y-83058000D03*
X148590000Y-105918000D03*
X156210000Y-85598000D03*
X148590000Y-103378000D03*
X156210000Y-88138000D03*
X148590000Y-100838000D03*
X156210000Y-90678000D03*
X148590000Y-98298000D03*
X156210000Y-93218000D03*
X148590000Y-95758000D03*
X156210000Y-95758000D03*
X148590000Y-93218000D03*
X156210000Y-98298000D03*
X148590000Y-90678000D03*
X156210000Y-100838000D03*
X148590000Y-88138000D03*
X156210000Y-103378000D03*
X148590000Y-85598000D03*
X156210000Y-105918000D03*
D15*
X148590000Y-83058000D03*
D13*
X131572000Y-75438000D03*
X116332000Y-113538000D03*
X131572000Y-77978000D03*
X116332000Y-110998000D03*
X131572000Y-80518000D03*
X116332000Y-108458000D03*
X131572000Y-83058000D03*
X116332000Y-105918000D03*
X131572000Y-85598000D03*
X116332000Y-103378000D03*
X131572000Y-88138000D03*
X116332000Y-100838000D03*
X131572000Y-90678000D03*
X116332000Y-98298000D03*
X131572000Y-93218000D03*
X116332000Y-95758000D03*
X131572000Y-95758000D03*
X116332000Y-93218000D03*
X131572000Y-98298000D03*
X116332000Y-90678000D03*
X131572000Y-100838000D03*
X116332000Y-88138000D03*
X131572000Y-103378000D03*
X116332000Y-85598000D03*
X131572000Y-105918000D03*
X116332000Y-83058000D03*
X131572000Y-108458000D03*
X116332000Y-80518000D03*
X131572000Y-110998000D03*
X116332000Y-77978000D03*
X131572000Y-113538000D03*
D15*
X116332000Y-75438000D03*
D13*
X136144000Y-81280000D03*
D14*
X143764000Y-81280000D03*
D13*
X136144000Y-85090000D03*
D14*
X143764000Y-85090000D03*
D13*
X136144000Y-88900000D03*
D14*
X143764000Y-88900000D03*
D13*
X136144000Y-96520000D03*
D14*
X143764000Y-96520000D03*
D13*
X136144000Y-100330000D03*
D14*
X143764000Y-100330000D03*
D13*
X136144000Y-104140000D03*
D14*
X143764000Y-104140000D03*
D13*
X136144000Y-107950000D03*
D14*
X143764000Y-107950000D03*
M02*
